<svg xmlns="http://www.w3.org/2000/svg" viewBox="0 0 504.03 78.62">
    <defs>
        <style>.cls-1{fill:#ffffff;}</style>
    </defs>
    <g id="Layer_2" data-name="Layer 2">
        <g id="Layer_1-2" data-name="Layer 1">
            <path class="cls-1"
                  d="M41.35,40.48c-3.48-7.78-.65-17.14,6.9-22.83,10.14-7.64,25.88-5.6,34.57,4.78,9.26,11,10.88,26.28,1.54,39.38-8.56,12-20.77,16.85-35,16.81a163.24,163.24,0,0,1-26.91-2.41c8.44-.42,16.87-1,25.31-1.2,7.74-.18,15.12-1.56,21.63-5.85,10.73-7.07,18-16.25,16.13-30C84.14,29,78.69,21.68,68.92,17.92A20.53,20.53,0,0,0,41.08,37.08c0,1.18.06,2.37.09,3.55Z"/>
            <path class="cls-1"
                  d="M91,15a51.93,51.93,0,0,1-4.59-3.1C78.26,5.05,68.8,3.31,58.52,4.76c-9.87,1.39-17,6.62-21.39,15.56-.62,1.26-1.25,2.51-2,4.05A21.79,21.79,0,0,1,42.26,7.94c13.22-12.5,38.1-9.84,48.36,5.21.34.49.2,1.32.28,2Z"/>
            <path class="cls-1"
                  d="M73.77,56.32c-1.75,6-7,8.27-11.89,10.17A47.25,47.25,0,0,1,46.09,70c-15.34.28-30.68-.24-46-.45,0-.5,0-1-.07-1.49,2.31-.18,4.62-.44,6.93-.5,12.29-.33,24.58-.82,36.87-.84,11.28,0,21.45-2.85,30.14-10.26Z"/>
            <path class="cls-1"
                  d="M63.88,40.68c-1.72,3.54-4.41,2.94-7.13,1.54a7.19,7.19,0,0,1-3.67-7.75c1.13-6.19,8.41-9.77,14.43-7.08,9.09,4.06,10.61,16.89,2.62,22.84-3.06,2.29-6.46,3.88-10.93,3.1,3.11-2,6.19-3.48,8.59-5.67a9.94,9.94,0,0,0-.41-15.47,7.14,7.14,0,0,0-9.12.07c-1.68,1.45-3.11,3.38-1.84,5.53A9.56,9.56,0,0,0,60.58,41c.94.44,2.31,0,3.48-.11Z"/>
            <path class="cls-1"
                  d="M89.68,65C91.14,59.83,93,54.74,94,49.49c2.61-13.44-1.35-24.74-11.89-33.61-.54-.46-1.12-.87-1.66-1.33a4.09,4.09,0,0,1-1.27-1.67C87.78,16,93.75,22,96.39,30.67c3.78,12.44,2.41,24.18-6.87,34.16Z"/>
            <path class="cls-1" d="M42.6,44.88c-.42-1.47-.83-2.94-1.25-4.4l-.18.15c.41,1.48.83,3,1.24,4.45Z"/>
            <path class="cls-1" d="M64.06,40.84l.38-2-.56,1.82Z"/>
            <path class="cls-1" d="M42.41,45.08l.81.5c-.11,0-.27-.06-.34-.15a3.55,3.55,0,0,1-.28-.55Z"/>
            <path class="cls-1" d="M92.36,16.56l.59.6c-.11-.08-.28-.13-.32-.23a2.52,2.52,0,0,1-.09-.56Z"/>
            <path class="cls-1" d="M92.54,16.37,91,15l-.13.14,1.46,1.41Z"/>
            <path class="cls-1" d="M73.94,56.49,74.2,56l-.43.3Z"/>
            <path class="cls-1" d="M89.52,64.83l-.5,1,.66-.82Z"/>
            <path class="cls-1"
                  d="M156.9,44.55c3.18-.24,6.35,0,9.45-.56,1.9-.32,3.41.16,3.81,2.23s-1.11,3.19-2.86,3.51a35.25,35.25,0,0,1-5,.48l-14.92.24c-2.7.08-3.65,1.27-3.25,4,.47,2.87.79,5.9,1.19,8.85.08,1.36.31,2.63.31,4,.08,1.52-.23,3-2.14,3.35s-3.09-.88-3.41-2.79c-.48-3.67-1-7.42-1.43-11.09-.16-1.59-.56-2.39-2.54-2.71-3.73-.56-4.44-3.35-1.27-5.66,2.62-1.84,2.94-3.91,2.86-6.63a4.84,4.84,0,0,0-2.07-3.66,3.14,3.14,0,0,1-.55-4.47c2.06-2.31,3.17-6.7,8.09-4.79,1,.48,2.46-.32,3.73-.71,6.51-1.68,13.34-1.84,19.92-3,2-.31,3.89.08,4.29,2.48.24,2.47-1.75,3.19-3.57,3.43-4,.63-8.1,1-12.14,1.59-2.62.4-5.08,1-7.7,1.44-3,.48-4.37,1.91-4.29,5.34.24,5.75-.08,5.75,5.88,5.51,2.53-.08,5.23,0,7.77,0Z"/>
            <path class="cls-1"
                  d="M195.47,50.77c-6.43-2-6.75.4-8.34,4.7-.79,2.64-2,5.27-2.93,7.82-.56,1.6-1.43,2.63-3.18,2.63a2.83,2.83,0,0,1-2.78-2.31,31.72,31.72,0,0,1-.87-15.39c.72-3.27,2.3-3.83,5.16-1.84,1,.8,1.51,1.2,2.62.16C188.32,43.35,192.21,44,196,45c1.91.47,3.65,1.51,2.86,3.9-.56,2-2.3,2.08-3.41,2Z"/>
            <path class="cls-1"
                  d="M217.21,42.71a3.07,3.07,0,0,1,3.25,1.6c3.57,6.22,2.3,15.15-2.86,20.58a7.37,7.37,0,0,1-12.54-3.59,19.16,19.16,0,0,1,2.86-14.36c2.22-3.27,5.63-3.83,9.21-4.15Zm-6.67,15.08c-.08,1.27-.16,2.79,1.43,3.11,1.19.32,1.82-.8,2.46-1.76a13.73,13.73,0,0,0,2-4.54c.24-1.12.16-2.32-1.11-2.64s-2.94-.79-3.73,1a10.14,10.14,0,0,0-.95,4.87Z"/>
            <path class="cls-1"
                  d="M244.11,51.17c-3.5,3.43-5.16,6.7-7.38,9.73-1.27,1.51-2.23,3.75-4.77,3.19-2.77-.64-2.61-3.19-2.93-5.42-.32-2.64-.64-5.19-.88-7.82a6.22,6.22,0,0,1,.48-3.75,2.48,2.48,0,0,1,2.62-1.68,2.29,2.29,0,0,1,2.06,1.6,38.73,38.73,0,0,1,1.19,5.1c1.67-.08,2-1.51,2.78-2.31.87-1,1.67-2.07,2.54-3,4.13-3.59,8.33-2.47,9.92,2.71.8,2.47.56,5.11,2.14,7.9,1.67-2.08,3.18-3.91,4.85-5.67,4.84-5,10.55-4,13.17,2.4a15.14,15.14,0,0,1,1.51,5.9c-.08,1.68-.64,3-2.38,3.43a2.69,2.69,0,0,1-3.18-2.31c-.16-.32-.16-.72-.32-1-.63-1.83-.39-4.71-2.85-5-2.22-.24-3,2.39-4.37,3.82a45.71,45.71,0,0,1-4,4.71c-3.8,3-7.54,1.68-8.65-3.11-.55-2.71-.95-5.42-1.66-9.25Z"/>
            <path class="cls-1"
                  d="M282.19,63c2.23.08,3.34,1.28,3.26,3.43-.08,2.55-2.62,5.11-5.08,4.87A3.61,3.61,0,0,1,277,67.84c-.07-2.08,3-4.87,5.24-4.79Z"/>
            <path class="cls-1"
                  d="M325,35.48c9.36,1.36,13.65,4.87,15.08,12.21,1.74,8.69-1.19,15.47-8.65,19.86a32.92,32.92,0,0,1-14.37,3.91c-2.62.16-4.2-.8-4.68-3.59s-1.35-5.58-.56-8.7c.88-3.59,0-7.49-.87-11.08-1.74-7.26-2.86-14.52-4.36-21.86a14.64,14.64,0,0,1,.08-4.94c.55-4.47,1.9-5.19,5.47-2.64a2.71,2.71,0,0,0,3,.56,18.81,18.81,0,0,1,6.66-.79c4.05.16,5.08,1.27,5.48,5.34.24,3.91-.79,7.58-2.22,11.64Zm9.52,16.84a11.72,11.72,0,0,0,0-1.68c-.47-6.14-3-8.61-9.12-8.69-1,0-2.15.08-3.34,0-4.52-.4-5.55-2.08-3.81-6.31.72-1.83,1.59-3.66,2.3-5.66.56-1.67,1.83-3.75.24-5.18s-3.49,0-5.24.47c-2.3.72-2.46,2.32-2.22,4.39,1.35,11,5.48,21.7,4.92,33.1-.08,1.2.72,1.92,2.07,2.16,6.66.71,14.12-5.9,14.2-12.76Z"/>
            <path class="cls-1"
                  d="M344.59,18.58a38.82,38.82,0,0,1,.56-6,3.64,3.64,0,0,1,4.68-2.79c2.38.8,2.22,2.47,1.51,4.55-1.59,4.7-.32,9.57.16,14.35.48,3.83,1.43,7.66,2.22,11.49.48,2.47,1,3.67,4.29,3.35,7.77-.72,10.32,2.63,12.77,9.81.56,1.76.16,3.51-1.58,4.31-2,.88-3.1-.4-3.81-2.08-.56-1.35-1.11-2.79-1.83-4.14a4,4,0,0,0-4.2-2c-2.07.24-2.46,2-2.7,3.75a32.22,32.22,0,0,0-.08,3.91c0,2.07-.24,4.07-2.62,4.31-2.62.32-3.65-1.68-3.57-3.91.24-6.22-1.59-12.13-2.7-18.19-.71-3.75-1.43-7.33-1.9-11-.56-3.12-.72-6.3-1-9.58Z"/>
            <path class="cls-1"
                  d="M376.57,47c.08-1.12.16-3.19.4-5.18s1.35-3.67,3.57-3.35,3.1,2.15,2.62,4.14a34.06,34.06,0,0,0-.55,8.94,20.2,20.2,0,0,0,.47,3.91c.87,2.71,2.3,3.19,4.45,1.27a56.44,56.44,0,0,0,9.2-11.17,28.28,28.28,0,0,1,2-3.34c.79-1.12,1.9-1.84,3.25-1.12a2.58,2.58,0,0,1,1.43,3.75c-3.57,7.42-8.18,14.2-15.48,18.42-3.65,2.24-7.46.32-9.6-3.83-1.83-3.67-1.51-7.57-1.67-12.36Z"/>
            <path class="cls-1"
                  d="M425.54,60.45c.23,0,.47.08.55-.08,1.27-1.35,2.22-3.67,4.84-2.23,1.51,1,1.67,3.67.32,6.14a5.79,5.79,0,0,1-5.16,3.59,5.87,5.87,0,0,1-5.55-3.11,15.32,15.32,0,0,1-1.75-5.9c-.32-2.56-.48-5.19-.72-7.74-.23-1.76-.07-3.59-.87-4.87-1-1.67-3.09-.64-4.6-.8-1.75-.08-3-.79-3.17-2.63-.16-2.07,1.26-2.79,3.17-3.11,4.28-.88,4.21-1,4-5.42a113.21,113.21,0,0,1-.16-11.65c.24-3.11,2.22-4.54,4.84-4s3.89,2.72,2.38,4.87c-3.25,4.87-.87,9.81-.56,14.6.16,1.35,1.51,1.43,2.62,1.51a25.35,25.35,0,0,1,4.37.4,2.45,2.45,0,0,1,1.82,3,2.61,2.61,0,0,1-2.14,2.16c-2,.55-5-1.36-5.87,1.43-.64,2,.08,4.47.16,6.62.23,2.39-.08,4.87,1.35,6.94Z"/>
            <path class="cls-1"
                  d="M452.59,54.15c-2.3,1.67-4,3.75-6.43,4.47s-4.84,1.43-6.9-.32c-2.22-1.92-1.51-4.47-.79-6.7,2.69-8.22,10.79-13.72,21.27-11.73a4.24,4.24,0,0,1,3.81,3.59c.31,1.84-.56,3.11-2,4.31-1.11,1-3.57,1-3.17,3.27a8.62,8.62,0,0,0,3.41,5.66c.71.48,1.59.8,2.38,1.28,1.35.8,2.3,2,1.67,3.67-.8,2-2.54,1.91-4.29,1.43a10.53,10.53,0,0,1-6.11-4.54c-.87-1.28-1.67-2.72-2.78-4.39Zm-4.52-5.74c-1.75.79-2.78,1.75-2.7,4.14,1-.87,1.51-1.35,2.06-1.83a2.49,2.49,0,0,0,.72-2.39Z"/>
            <path class="cls-1"
                  d="M478.54,49.28c1.9-1.75,3.33-3.35,4.84-4.46,5.08-3.75,10.32-3.19,14.29,1.67a86.73,86.73,0,0,1,5.47,7.74c1.11,1.67,1.43,3.59-.55,4.94-1.91,1.12-3.18-.31-4.21-1.67-1.59-2.23-3.1-4.63-4.92-6.78-2.15-2.79-4.37-2.95-7.07-.64a22.1,22.1,0,0,0-6,9.25c-.71,2.08-1.5,4.15-4.12,3.75-2.46-.32-3.26-2.47-3.5-4.54-.55-4.95-.79-10-1-14.92A5,5,0,0,1,472,42c.56-1.52,1.43-2.8,3.17-2.72a3,3,0,0,1,2.7,3c.32,2.15-.39,4.46.56,7.25Z"/>
        </g>
    </g>
</svg>
